<?xml version="1.0" encoding="utf-8"?>
<!-- Generator: Adobe Illustrator 26.3.1, SVG Export Plug-In . SVG Version: 6.00 Build 0)  -->
<svg version="1.1" id="Capa_1" xmlns="http://www.w3.org/2000/svg" xmlns:xlink="http://www.w3.org/1999/xlink" x="0px" y="0px"
	 viewBox="0 0 2500 2500" style="enable-background:new 0 0 2500 2500;" xml:space="preserve">
<style type="text/css">
	.st0{fill:#F0DB4F;}
	.st1{fill:#323330;}
</style>
<circle class="st0" cx="1250" cy="1250" r="1250"/>
<path class="st1" d="M2090.8,1699.2c-18.3-114.1-92.7-209.8-313-299.2c-76.5-35.2-161.8-60.4-187.3-118.3
	c-9-33.7-10.2-52.8-4.5-73.2c16.4-66.3,95.5-87,158.3-68c40.4,13.5,78.7,44.7,101.7,94.3c107.9-69.9,107.7-69.4,183-117.4
	c-27.6-42.8-42.3-62.5-60.4-80.8c-64.9-72.5-153.3-109.8-294.7-106.9c-24.5,3.1-49.2,6.4-73.7,9.5
	c-70.6,17.8-137.8,54.9-177.3,104.6c-118.3,134.3-84.6,369.3,59.4,466c141.9,106.5,350.3,130.7,376.9,230.3
	c25.9,121.9-89.6,161.4-204.4,147.3c-84.6-17.6-131.7-60.6-182.5-138.8c-93.6,54.2-93.6,54.2-189.9,109.6
	c22.8,49.9,46.8,72.5,85.1,115.7c181.1,183.7,634.3,174.7,715.5-103.4C2086.5,1861,2108.4,1797.3,2090.8,1699.2z M1154.5,944.4
	H920.7c0,202-0.9,402.6-0.9,604.6c0,128.6,6.7,246.4-14.3,282.6c-34.2,71.1-122.9,62.3-163.3,48.5c-41.1-20.2-62-49-86.3-89.6
	c-6.7-11.6-11.6-20.7-13.3-21.4c-63.4,38.7-126.7,77.7-190.1,116.4c31.6,64.9,78.2,121.2,137.8,157.8
	c89.1,53.5,208.9,69.9,334.1,41.1c81.5-23.8,151.9-73,188.7-147.8c53.2-98.1,41.8-217,41.3-348.4
	C1155.7,1373.9,1154.5,1159.5,1154.5,944.4L1154.5,944.4z"/>
</svg>
